<svg width="139" height="40" viewBox="0 0 139 40" fill="none" xmlns="http://www.w3.org/2000/svg">
<path d="M28.7268 7.67676C28.2772 7.75605 27.9492 8.14837 27.9492 8.6071V9.63359C27.9492 10.155 28.3701 10.578 28.8892 10.578C29.4083 10.578 29.8292 10.155 29.8292 9.63359V9.46211C31.1859 9.43614 32.5071 9.96167 33.4769 10.9358C34.4988 11.9625 34.9826 13.325 34.9386 14.6729H36.8176C36.8612 12.8411 36.1947 10.9951 34.8062 9.60008C33.2184 8.00524 30.9464 7.28623 28.7268 7.67676" fill="#3E5020"/>
<path d="M1.88001 14.7833C1.88001 13.829 2.65262 13.0527 3.6024 13.0527C4.55213 13.0527 5.32472 13.829 5.32472 14.7833C5.32472 15.7376 4.55213 16.5139 3.6024 16.5139C2.65262 16.5139 1.88001 15.7376 1.88001 14.7833V14.7833ZM37.836 27.0114C40.3837 24.0429 41.7788 20.2829 41.7788 16.3478C41.7788 11.8386 39.9908 7.63931 36.744 4.52396C33.4992 1.4104 29.2347 -0.189202 24.7406 0.0179591C16.4387 0.401554 9.63646 7.23589 9.25439 15.5768C9.04498 20.1538 10.3916 24.051 13.2571 27.1604C15.5561 29.6549 18.7975 31.5889 22.9065 32.931C21.1296 35.7006 18.0346 37.5399 14.5179 37.5399C9.01747 37.5399 4.54242 33.0436 4.54242 27.5173V18.2733C6.07358 17.8562 7.20475 16.4519 7.20475 14.7833C7.20475 12.7876 5.58878 11.1638 3.6024 11.1638C1.61603 11.1638 0 12.7876 0 14.7833C0 16.4519 1.13123 17.8562 2.66241 18.2733V27.5173C2.66241 34.0851 7.98074 39.4287 14.5179 39.4287C17.646 39.4287 20.493 38.2032 22.6137 36.2075C23.1368 35.6976 23.7078 35.0654 24.2388 34.324C24.428 34.0518 24.6058 33.7715 24.7725 33.4835C24.7771 33.4849 24.7816 33.4861 24.7861 33.4872C25.1052 32.9534 25.3901 32.3755 25.619 31.756C25.6119 31.7543 25.6044 31.7523 25.5971 31.7505C25.7354 31.3869 25.856 31.0152 25.9586 30.6357C26.0095 30.414 26.0525 30.1878 26.0862 29.9574C26.1004 29.8608 26.1326 29.772 26.1727 29.6885C26.2804 29.1032 26.3451 28.5035 26.364 27.8921L34.8054 19.4112C35.6257 18.5871 36.1926 17.6046 36.5132 16.5617H34.5067C34.5038 16.568 34.5008 16.5742 34.498 16.5807H31.5109L30.2657 14.9006C30.0595 14.6225 29.7182 14.481 29.3772 14.5301C29.0356 14.5797 28.7488 14.8134 28.6296 15.1385L27.7054 17.6615L26.4534 11.9066C26.3666 11.5076 26.0347 11.2102 25.6304 11.1688C25.2273 11.1265 24.8414 11.3514 24.676 11.7248L22.9851 15.5483L21.9046 13.984C21.7312 13.7326 21.4472 13.5812 21.1428 13.5778C20.8409 13.5859 20.551 13.7193 20.3721 13.9669L18.5233 16.5217H16.4613C15.773 14.7167 16.1482 12.5925 17.5941 11.1398C18.5641 10.1653 19.8887 9.63975 21.2424 9.66611C21.2594 10.1726 21.6735 10.5778 22.1818 10.5778C22.7009 10.5778 23.1218 10.1548 23.1218 9.6334V8.8111C23.1218 8.35238 22.7937 7.96006 22.3442 7.88096C20.1244 7.49003 17.8524 8.20944 16.265 9.80429C13.9403 12.1398 13.6275 15.7374 15.317 18.4184H17.732L17.7244 18.4107H19.0021C19.3028 18.4107 19.5854 18.266 19.7624 18.0215L21.1146 16.1531L22.3929 18.0045C22.5865 18.285 22.915 18.4375 23.2536 18.4065C23.5918 18.3744 23.8862 18.1617 24.0243 17.8497L25.2293 15.1255L26.5566 21.2268C26.6458 21.6367 26.9935 21.9386 27.4104 21.9673C27.4321 21.9687 27.4538 21.9697 27.4753 21.9697C27.8668 21.9697 28.2204 21.7248 28.3571 21.3514L29.7945 17.4276L30.285 18.0891C30.4624 18.3284 30.742 18.4696 31.039 18.4696H33.0841L25.4335 26.1558L19.6121 20.3071H16.9536L24.4845 27.8735C24.4432 29.0556 24.1972 30.1858 23.7808 31.2303C17.3872 29.2031 10.7105 24.88 11.1326 15.6637C11.4702 8.28775 17.4856 2.2442 24.827 1.90461C25.0569 1.89411 25.2855 1.88895 25.514 1.88895C29.2369 1.88895 32.7418 3.29527 35.4455 5.89003C38.3174 8.64557 39.8989 12.3594 39.8989 16.3478C39.8989 20.0317 38.5159 23.5422 36.0051 26.2323C35.7271 26.5304 35.6711 26.9743 35.8668 27.3325C36.7306 28.9146 37.9005 31.0481 38.6807 32.4329C35.8745 32.9665 30.5076 32.527 27.4913 32.0952C27.2865 32.7002 27.026 33.2987 26.7155 33.8857C28.8151 34.2124 32.2653 34.5613 35.2678 34.5613C36.7259 34.5613 38.0781 34.4788 39.1175 34.2719C39.7418 34.1474 40.2605 33.7529 40.5046 33.2163C40.7262 32.7292 40.6982 32.1761 40.4277 31.6985C39.7448 30.492 38.6947 28.5818 37.836 27.0114" fill="#3E5020"/>
<path d="M53.6385 26.9744C53.414 26.9744 53.19 26.9994 52.8909 26.9994C51.2214 26.9994 50.4989 26.3736 50.4989 24.8714V19.0886H53.1148C53.7877 19.0886 54.2861 18.613 54.2861 17.9622C54.2861 17.3116 53.7877 16.8106 53.1148 16.8106H50.4989V14.6578C50.4989 13.8818 49.9257 13.3062 49.1785 13.3062C48.4308 13.3062 47.8576 13.9068 47.8576 14.6578V16.8106H46.8861C46.2381 16.8106 45.7148 17.3116 45.7148 17.9622C45.7148 18.613 46.2381 19.0886 46.8861 19.0886H47.8576V25.0969C47.8576 27.8756 49.4523 29.3777 52.3676 29.3777C53.0651 29.3777 53.5886 29.3021 54.0122 29.1273C54.5104 28.9521 54.7847 28.5766 54.7847 28.0257C54.7847 27.4 54.3362 26.9744 53.6385 26.9744Z" fill="#59AB50"/>
<path d="M59.9892 21.7674C60.388 19.9648 61.7333 18.7633 63.5024 18.7633C65.3463 18.7633 66.5921 19.99 66.6418 21.7674H59.9892ZM63.5774 16.5353C60.0143 16.5353 57.2734 19.3392 57.2734 22.969C57.2734 26.6491 60.064 29.3777 63.8512 29.3777C65.3711 29.3777 66.7417 28.9271 67.9129 28.0506C68.3862 27.7002 68.5605 27.4 68.5605 26.9492C68.5605 26.3234 68.0871 25.848 67.464 25.848C67.2401 25.848 67.0155 25.9478 66.7916 26.098C65.9694 26.7241 64.9726 27.0494 63.9262 27.0494C61.7583 27.0494 60.2882 25.7978 59.9395 23.8202H67.7631C68.685 23.8202 69.2582 23.2693 69.2582 22.3681V22.243C69.2582 18.9386 66.8413 16.5353 63.5774 16.5353" fill="#59AB50"/>
<path d="M74.6897 10.0514C73.9173 10.0514 73.3691 10.6275 73.3691 11.4034V28.0257C73.3691 28.8018 73.9421 29.3777 74.6897 29.3777C75.4374 29.3777 75.9853 28.8018 75.9853 28.0257V11.4034C75.9853 10.6275 75.4374 10.0514 74.6897 10.0514Z" fill="#59AB50"/>
<path d="M82.8332 21.7674C83.2318 19.9648 84.5772 18.7633 86.3461 18.7633C88.19 18.7633 89.4358 19.99 89.4858 21.7674H82.8332ZM86.4211 16.5353C82.8581 16.5353 80.1172 19.3392 80.1172 22.969C80.1172 26.6491 82.908 29.3777 86.695 29.3777C88.2149 29.3777 89.5854 28.9271 90.7563 28.0506C91.2298 27.7002 91.4042 27.4 91.4042 26.9492C91.4042 26.3234 90.9309 25.848 90.308 25.848C90.0838 25.848 89.8595 25.9478 89.6353 26.098C88.8129 26.7241 87.8163 27.0494 86.7698 27.0494C84.6021 27.0494 83.1319 25.7978 82.7831 23.8202H90.6069C91.5287 23.8202 92.1019 23.2693 92.1019 22.3681V22.243C92.1019 18.9386 89.685 16.5353 86.4211 16.5353" fill="#59AB50"/>
<path d="M97.5333 10.0514C96.7608 10.0514 96.2129 10.6275 96.2129 11.4034V28.0257C96.2129 28.8018 96.7859 29.3777 97.5333 29.3777C98.2807 29.3777 98.8289 28.8018 98.8289 28.0257V11.4034C98.8289 10.6275 98.2807 10.0514 97.5333 10.0514Z" fill="#3E5020"/>
<path d="M105.055 16.5353C104.283 16.5353 103.734 17.111 103.734 17.8871V28.0257C103.734 28.8018 104.283 29.3777 105.03 29.3777C105.778 29.3777 106.35 28.8018 106.35 28.0257V17.8871C106.35 17.111 105.802 16.5353 105.055 16.5353" fill="#3E5020"/>
<path d="M105.055 10.5273C104.083 10.5273 103.311 11.2782 103.311 12.2294C103.311 13.1805 104.083 13.9316 105.055 13.9316C106.001 13.9316 106.799 13.1805 106.799 12.2294C106.799 11.2782 106.001 10.5273 105.055 10.5273" fill="#59AB50"/>
<path d="M117.339 10.277C116.94 10.1268 116.492 10.0514 115.919 10.0514C113.278 10.0514 111.708 11.6286 111.708 14.3322V16.8106H110.861C110.213 16.8106 109.715 17.3116 109.715 17.9622C109.715 18.613 110.213 19.0886 110.861 19.0886H111.708V28.0257C111.708 28.8018 112.256 29.3777 113.029 29.3777C113.776 29.3777 114.324 28.8268 114.324 28.0257V19.0886H116.293C116.965 19.0886 117.464 18.613 117.464 17.9622C117.464 17.3116 116.965 16.8106 116.293 16.8106H114.324V14.5576C114.324 13.1807 115.047 12.4297 116.342 12.4297C116.592 12.4297 116.766 12.4547 116.94 12.4547C117.639 12.4547 118.112 12.0291 118.112 11.4034C118.112 10.8525 117.813 10.4519 117.339 10.277" fill="#3E5020"/>
<path d="M122.345 21.7674C122.743 19.9648 124.089 18.7633 125.858 18.7633C127.702 18.7633 128.948 19.99 128.997 21.7674H122.345ZM125.933 16.5353C122.37 16.5353 119.629 19.3392 119.629 22.969C119.629 26.6491 122.419 29.3777 126.207 29.3777C127.727 29.3777 129.097 28.9271 130.268 28.0506C130.742 27.7002 130.916 27.4 130.916 26.9492C130.916 26.3234 130.443 25.848 129.82 25.848C129.596 25.848 129.371 25.9478 129.147 26.098C128.325 26.7241 127.328 27.0494 126.282 27.0494C124.114 27.0494 122.644 25.7978 122.295 23.8202H130.119C131.04 23.8202 131.614 23.2693 131.614 22.3681V22.243C131.614 18.9386 129.197 16.5353 125.933 16.5353" fill="#3E5020"/>
<path d="M134.57 29.3777V27.0543H133.744V26.5813H135.956V27.0543H135.132V29.3777H134.57" fill="#59AB50"/>
<path d="M136.312 29.3777V26.5813H137.154L137.659 28.4888L138.158 26.5813H139.001V29.3777H138.479V27.1764L137.926 29.3777H137.385L136.835 27.1764V29.3777H136.312" fill="#59AB50"/>
</svg>
